<svg xmlns="http://www.w3.org/2000/svg" xmlns:xlink="http://www.w3.org/1999/xlink" width="1500" viewBox="0 0 1500 1500" height="1500" version="1.0"><defs><g id="a"><path d="M 25.3125 -166.296875 L 243.28125 -254.890625 L 25.3125 -354.375 L 25.3125 -458.796875 L 380.75 -280.90625 L 380.75 -220.4375 L 25.3125 -62.578125 Z M 25.3125 -166.296875"/></g><g id="b"><path d="M 284.421875 -407.46875 C 251.367188 -407.46875 225.582031 -393.929688 207.0625 -366.859375 C 188.550781 -339.785156 179.296875 -302.460938 179.296875 -254.890625 C 179.296875 -155.984375 216.914062 -106.53125 292.15625 -106.53125 C 314.882812 -106.53125 336.910156 -109.691406 358.234375 -116.015625 C 379.566406 -122.347656 401.015625 -129.96875 422.578125 -138.875 L 422.578125 -21.453125 C 379.691406 -2.460938 331.175781 7.03125 277.03125 7.03125 C 199.457031 7.03125 139.984375 -15.46875 98.609375 -60.46875 C 57.242188 -105.46875 36.5625 -170.507812 36.5625 -255.59375 C 36.5625 -308.789062 46.582031 -355.546875 66.625 -395.859375 C 86.664062 -436.171875 115.492188 -467.164062 153.109375 -488.84375 C 190.722656 -510.53125 234.960938 -521.375 285.828125 -521.375 C 341.367188 -521.375 394.453125 -509.300781 445.078125 -485.15625 L 402.546875 -375.828125 C 383.554688 -384.734375 364.566406 -392.234375 345.578125 -398.328125 C 326.597656 -404.421875 306.210938 -407.46875 284.421875 -407.46875 Z M 284.421875 -407.46875"/></g><g id="c"><path d="M 391.640625 -156.09375 C 391.640625 -124.21875 383.550781 -95.914062 367.375 -71.1875 C 351.207031 -46.46875 327.890625 -27.25 297.421875 -13.53125 C 266.953125 0.175781 231.210938 7.03125 190.203125 7.03125 C 155.984375 7.03125 127.269531 4.628906 104.0625 -0.171875 C 80.863281 -4.984375 56.722656 -13.363281 31.640625 -25.3125 L 31.640625 -149.0625 C 58.128906 -135.46875 85.671875 -124.863281 114.265625 -117.25 C 142.859375 -109.632812 169.109375 -105.828125 193.015625 -105.828125 C 213.640625 -105.828125 228.753906 -109.398438 238.359375 -116.546875 C 247.972656 -123.691406 252.78125 -132.890625 252.78125 -144.140625 C 252.78125 -151.171875 250.84375 -157.320312 246.96875 -162.59375 C 243.101562 -167.875 236.894531 -173.207031 228.34375 -178.59375 C 219.789062 -183.988281 197 -195.003906 159.96875 -211.640625 C 126.445312 -226.878906 101.304688 -241.644531 84.546875 -255.9375 C 67.796875 -270.238281 55.375 -286.644531 47.28125 -305.15625 C 39.195312 -323.675781 35.15625 -345.59375 35.15625 -370.90625 C 35.15625 -418.25 52.378906 -455.160156 86.828125 -481.640625 C 121.285156 -508.128906 168.632812 -521.375 228.875 -521.375 C 282.070312 -521.375 336.328125 -509.066406 391.640625 -484.453125 L 349.109375 -377.234375 C 301.054688 -399.265625 259.570312 -410.28125 224.65625 -410.28125 C 206.601562 -410.28125 193.472656 -407.113281 185.265625 -400.78125 C 177.066406 -394.457031 172.96875 -386.609375 172.96875 -377.234375 C 172.96875 -367.148438 178.179688 -358.125 188.609375 -350.15625 C 199.046875 -342.1875 227.347656 -327.65625 273.515625 -306.5625 C 317.816406 -286.644531 348.578125 -265.257812 365.796875 -242.40625 C 383.023438 -219.550781 391.640625 -190.78125 391.640625 -156.09375 Z M 391.640625 -156.09375"/></g><g id="d"><path d="M 361.40625 133.25 L -1.40625 133.25 L -1.40625 46.765625 L 361.40625 46.765625 Z M 361.40625 133.25"/></g></defs><g fill="#FFF"><use x="104.883" y="1029" xmlns:xlink="http://www.w3.org/1999/xlink" xlink:href="#a" xlink:type="simple" xlink:actuate="onLoad" xlink:show="embed"/><use x="512.344" y="1029" xmlns:xlink="http://www.w3.org/1999/xlink" xlink:href="#b" xlink:type="simple" xlink:actuate="onLoad" xlink:show="embed"/><use x="979.57" y="1029" xmlns:xlink="http://www.w3.org/1999/xlink" xlink:href="#c" xlink:type="simple" xlink:actuate="onLoad" xlink:show="embed"/></g><g fill="#FFF"><use x="570" y="1029" xmlns:xlink="http://www.w3.org/1999/xlink" xlink:href="#d" xlink:type="simple" xlink:actuate="onLoad" xlink:show="embed"/></g></svg>